<svg width="21" height="24" viewBox="0 0 21 24" fill="none" xmlns="http://www.w3.org/2000/svg">
<path d="M12.6875 4.28573H9.1875V0.428578C9.1875 0.192 8.9915 0 8.75 0H4.37497C4.13347 0 3.93747 0.192 3.93747 0.428578V4.28573H0.437507C0.196 4.28573 0 4.47773 0 4.71431V9C0 9.23658 0.196 9.42858 0.437507 9.42858H3.93752V17.1428C3.93752 17.3794 4.13351 17.5714 4.37502 17.5714H8.75004C8.99155 17.5714 9.18755 17.3794 9.18755 17.1428V9.42858H12.6875C12.929 9.42858 13.125 9.23658 13.125 9V4.71427C13.125 4.47773 12.929 4.28573 12.6875 4.28573ZM12.25 8.57142H8.75C8.50849 8.57142 8.31249 8.76342 8.31249 9V16.7143H4.81248V9C4.81248 8.76342 4.61648 8.57142 4.37497 8.57142H0.874966V5.14284H4.37497C4.61648 5.14284 4.81248 4.95084 4.81248 4.71427V0.857156H8.31249V4.71431C8.31249 4.95089 8.50849 5.14289 8.75 5.14289H12.25V8.57142Z" transform="translate(3.9375)" fill="white"/>
<path d="M10.5 0H4.37502C1.96263 0 0 1.92258 0 4.28573C0 4.52231 0.196 4.71431 0.437507 4.71431H14.4375C14.679 4.71431 14.875 4.52231 14.875 4.28573C14.875 1.92258 12.9124 0 10.5 0ZM0.902385 3.85716C1.11829 2.16816 2.59332 0.857155 4.37502 0.857155H10.5C12.282 0.857155 13.7568 2.16816 13.9729 3.85716H0.902385Z" transform="translate(3.0625 16.7143)" fill="white"/>
<path d="M20.5625 0H0.437507C0.196 0 0 0.192 0 0.428578V3C0 3.23658 0.196 3.42858 0.437507 3.42858H20.5625C20.804 3.42858 21 3.23658 21 3V0.428578C21 0.192 20.804 0 20.5625 0ZM20.125 2.57142H0.875014V0.857157H20.125V2.57142Z" transform="translate(0 20.5714)" fill="white"/>
<path d="M3.883 0C1.55899 0 0.342078 1.73166 0.0235776 2.6475C-0.0545162 2.87166 0.0677455 3.11508 0.29638 3.19134C0.343179 3.207 0.390887 3.2145 0.437686 3.2145C0.619666 3.2145 0.789634 3.10224 0.851793 2.92416C0.859019 2.90339 1.59751 0.857157 3.883 0.857157C4.12451 0.857157 4.32051 0.665156 4.32051 0.428578C4.32051 0.192 4.12451 0 3.883 0Z" transform="translate(14.4922 14.5714)" fill="white"/>
<path d="M0.437507 0C0.196 0 0 0.191999 0 0.428577C0 0.665155 0.196 0.857155 0.437507 0.857155C4.29296 0.857155 4.37349 3.32208 4.37502 3.43116C4.37631 3.66642 4.57169 3.85716 4.81253 3.85716C5.05404 3.85716 5.25004 3.66516 5.25004 3.42858C5.24999 3.39431 5.1951 0 0.437507 0Z" transform="translate(2.1875 13.7143)" fill="white"/>
<path d="M2.56417 0.944344C2.11595 0.317578 1.40042 0 0.437507 0C0.196 0 0 0.192 0 0.428578C0 0.665156 0.196 0.857155 0.437507 0.857155C1.10733 0.857155 1.56824 1.04639 1.84693 1.43531C2.52068 2.37623 2.02431 4.32497 1.77625 4.99673C1.69399 5.21939 1.81123 5.46497 2.03833 5.5455C2.08757 5.56308 2.13786 5.57142 2.18753 5.57142C2.36626 5.57142 2.53403 5.46342 2.59877 5.28919C2.6416 5.17369 3.63624 2.44369 2.56417 0.944344Z" transform="translate(3.5 12.4286)" fill="white"/>
</svg>
