<svg width="24" height="24" viewBox="0 0 24 24" fill="none" xmlns="http://www.w3.org/2000/svg">
<path d="M23.6129 23.2258H23.5117V5.21677H23.6129C23.8267 5.21677 24 5.04351 24 4.82968C24 4.61585 23.8267 4.44258 23.6129 4.44258H23.351C23.6194 4.10028 23.78 3.66963 23.78 3.20196C23.78 2.22338 23.0787 1.40583 22.1523 1.22477V0.387097C22.1523 0.173265 21.9789 0 21.7652 0C21.5514 0 21.3781 0.173265 21.3781 0.387097V1.22477C20.4517 1.40583 19.7503 2.22338 19.7503 3.20196C19.7503 3.66968 19.9109 4.10028 20.1793 4.44258H19.9174C19.7036 4.44258 19.5303 4.61585 19.5303 4.82968C19.5303 5.04351 19.7036 5.21677 19.9174 5.21677H20.0186V7.93853H19.2558C19.0697 6.96733 18.2174 6.22797 17.1917 6.22095C17.1868 6.22095 17.182 6.2209 17.1772 6.2209C16.5496 6.2209 15.9842 6.49734 15.5969 6.93574C15.4097 6.43221 15.1178 5.96981 14.7322 5.576C14.0988 4.92914 13.2772 4.53373 12.3871 4.44036V3.61899C12.3871 3.40516 12.2138 3.2319 12 3.2319C11.7862 3.2319 11.6129 3.40516 11.6129 3.61899V4.44036C10.7228 4.53373 9.90116 4.92914 9.26777 5.576C8.88217 5.96981 8.5903 6.43215 8.40305 6.93569C8.01574 6.49729 7.45043 6.2209 6.82271 6.2209C6.81791 6.2209 6.81301 6.22095 6.80816 6.22095C5.83541 6.22761 5.06601 7.0401 4.80361 7.93853H3.98137V5.21677H4.08253C4.29631 5.21677 4.46963 5.04351 4.46963 4.82968C4.46963 4.61585 4.29631 4.44258 4.08253 4.44258H3.82065C4.08903 4.10028 4.24965 3.66963 4.24965 3.20196C4.24965 2.22338 3.54828 1.40583 2.62188 1.22477V0.387097C2.62188 0.173265 2.44857 0 2.23479 0C2.02101 0 1.84769 0.173265 1.84769 0.387097V1.22477C0.921342 1.40583 0.219974 2.22338 0.219974 3.20196C0.219974 3.66968 0.380594 4.10028 0.648981 4.44258H0.387097C0.173316 4.44258 0 4.61585 0 4.82968C0 5.04351 0.173316 5.21677 0.387097 5.21677H0.488258V23.2258H0.387097C0.173316 23.2258 0 23.3991 0 23.6129C0 23.8267 0.173316 24 0.387097 24H15.9371C16.1509 24 16.3242 23.8267 16.3242 23.6129C16.3242 23.3991 16.1509 23.2258 15.9371 23.2258H12.3871V21.6412H15.4467C15.4468 21.6412 15.4469 21.6412 15.4469 21.6412H18.5196V22.0645C18.5196 22.2783 18.6929 22.4516 18.9067 22.4516C19.1205 22.4516 19.2938 22.2783 19.2938 22.0645V21.6412H20.0186V23.2258H17.4855C17.2717 23.2258 17.0984 23.3991 17.0984 23.6129C17.0984 23.8267 17.2717 24 17.4855 24H23.6129C23.8267 24 24 23.8267 24 23.6129C24 23.3991 23.8267 23.2258 23.6129 23.2258ZM21.7652 1.96129C22.4492 1.96129 23.0058 2.51783 23.0058 3.20196C23.0058 3.88604 22.4492 4.44258 21.7652 4.44258C21.0811 4.44258 20.5245 3.88604 20.5245 3.20196C20.5245 2.51783 21.0811 1.96129 21.7652 1.96129ZM17.1773 6.9951C17.1803 6.9951 17.1834 6.9951 17.1865 6.99515C17.7841 6.99928 18.2888 7.39525 18.4585 7.93853H15.9009C16.0706 7.39205 16.5792 6.9951 17.1773 6.9951ZM14.179 6.11763C14.6669 6.61585 14.9666 7.25192 15.0449 7.93853H12.3871V5.2209C13.0668 5.31055 13.6926 5.62085 14.179 6.11763ZM9.82096 6.11763C10.3074 5.62085 10.9332 5.31055 11.6129 5.2209V7.93853H8.9551C9.03345 7.25187 9.33311 6.61585 9.82096 6.11763ZM8.54663 9.48697C8.33285 9.48697 8.15954 9.66023 8.15954 9.87406V20.867H5.48041V8.71277H8.54658C8.54746 8.71277 8.54839 8.71277 8.54926 8.71277H11.6129V20.867H8.93373V9.87406C8.93373 9.66023 8.76041 9.48697 8.54663 9.48697ZM6.81352 6.99515C6.81662 6.9951 6.81961 6.9951 6.82271 6.9951C7.42075 6.9951 7.92939 7.39205 8.09915 7.93853H5.62575C5.84542 7.43097 6.29228 6.99871 6.81352 6.99515ZM4.70622 8.71277V20.867H3.98137V8.71277H4.70622ZM2.23484 1.96129C2.91892 1.96129 3.47551 2.51783 3.47551 3.20196C3.47551 3.88604 2.91897 4.44258 2.23484 4.44258C1.55071 4.44258 0.994168 3.88604 0.994168 3.20196C0.994168 2.51783 1.55071 1.96129 2.23484 1.96129ZM1.26245 5.21677H3.20712V23.2258H1.26245V5.21677ZM11.6129 23.2258H3.98137V21.6412H4.70622V22.0645C4.70622 22.2783 4.87954 22.4516 5.09332 22.4516C5.3071 22.4516 5.48041 22.2783 5.48041 22.0645V21.6412H11.6129V23.2258ZM15.8343 20.867L15.8405 9.87427C15.8406 9.66049 15.6674 9.48707 15.4536 9.48697C15.4535 9.48697 15.4534 9.48697 15.4534 9.48697C15.2397 9.48697 15.0664 9.66013 15.0663 9.87386L15.0601 20.867H12.3871V8.71277H15.4507C15.4517 8.71277 15.4525 8.71277 15.4534 8.71277H18.5196V20.867H15.8343ZM19.2938 20.867V8.71277H20.0186V20.867H19.2938ZM20.7928 5.21677H22.7375V23.2258H20.7928V5.21677Z" fill="white"/>
</svg>
