<svg width="24" height="24" viewBox="0 0 24 17" fill="none" xmlns="http://www.w3.org/2000/svg">
<path d="M22.5 6.99978C22.1155 6.99978 21.7654 7.14482 21.4995 7.38281V6.49952C21.4995 4.46334 19.9702 2.77734 18 2.53053V1.99952H18.4995C18.7757 1.99952 18.9998 1.7761 18.9998 1.5C18.9998 1.2239 18.7757 0.999781 18.4995 0.999781H18V0.499516C18 0.223366 17.7759 0 17.4997 0C17.2236 0 16.9995 0.223413 16.9995 0.499516V0.999781H16.5C16.2232 0.999781 15.9998 1.2239 15.9998 1.5C15.9998 1.77615 16.2232 1.99952 16.5 1.99952H16.9995V2.53053C15.0293 2.77734 13.5 4.46334 13.5 6.49952V10.9995H12.9998C12.7236 10.9995 12.4995 11.2236 12.4995 11.4998V12.4995C12.4995 12.2234 12.2761 12 12 12C11.7231 12 11.4998 12.2235 11.4998 12.4995V11.4998C11.4998 11.2236 11.2757 10.9995 10.9996 10.9995H9.80862L8.94656 9.27615C8.86232 9.10697 8.68874 9 8.49978 9H7.99956V5.99995H9.49956C9.77566 5.99995 9.99978 5.77584 9.99978 5.49973V3.49947C9.99978 3.22332 9.77566 2.99995 9.49956 2.99995H7.99956V1.49995C7.99956 1.22385 7.77615 0.999735 7.50005 0.999735H5.49983C5.22373 0.999735 4.99961 1.22385 4.99961 1.49995V2.99995H3.49952C3.22337 2.99995 3 3.22337 3 3.49947V5.49973C3 5.77584 3.22341 5.99995 3.49952 5.99995H4.99952V9H4.5C4.31034 9 4.13746 9.10693 4.05252 9.27615L3.19046 10.9995H1.99952V9.91334C2.58177 9.70751 3 9.15165 3 8.49978C3 7.67283 2.3269 6.99978 1.5 6.99978C0.672396 6.99983 0 7.67283 0 8.49978C0 9.15165 0.417482 9.70755 0.999781 9.91334V15.4973C0.999781 15.7735 1.22319 15.9968 1.5 15.9968C1.77615 15.9968 1.99952 15.7734 1.99952 15.4973V13.9995H3.49952V15.5025C3.49952 15.7786 3.72363 16.002 3.99973 16.002C4.27588 16.002 4.49995 15.7786 4.49995 15.5025V13.9995H5.49973V15.5025C5.49973 15.7786 5.72315 16.002 5.99995 16.002C6.2761 16.002 6.49947 15.7786 6.49947 15.5025V13.9995H7.49995V15.5025C7.49995 15.7786 7.72337 16.002 7.99947 16.002C8.27557 16.002 8.49969 15.7786 8.49969 15.5025V13.9995H9.49947V15.5025C9.49947 15.7786 9.72359 16.002 9.99969 16.002C10.2758 16.002 10.4999 15.7786 10.4999 15.5025V13.9995H10.9994C11.2755 13.9995 11.4996 13.7761 11.4996 13.5V15.5025C11.4996 15.7786 11.7231 16.002 11.9999 16.002C12.276 16.002 12.4994 15.7786 12.4994 15.5025V13.5C12.4994 13.7761 12.7235 13.9995 12.9996 13.9995H13.4999V15.5025C13.4999 15.7786 13.7233 16.002 13.9994 16.002C14.2755 16.002 14.4996 15.7786 14.4996 15.5025V13.9995H15.4994V15.5025C15.4994 15.7786 15.7235 16.002 15.9996 16.002C16.2758 16.002 16.4999 15.7786 16.4999 15.5025V13.9995H17.4996V15.5025C17.4996 15.7786 17.723 16.002 17.9999 16.002C18.276 16.002 18.4994 15.7786 18.4994 15.5025V13.9995H19.4999V15.5025C19.4999 15.7786 19.7233 16.002 19.9994 16.002C20.2755 16.002 20.4996 15.7786 20.4996 15.5025V13.9995H20.9999H21.9996V15.4973C21.9996 15.7735 22.2231 15.9968 22.4999 15.9968C22.776 15.9968 22.9994 15.7734 22.9994 15.4973V9.91334C23.5818 9.70751 24 9.15165 24 8.49978C24 7.67283 23.3269 6.99978 22.5 6.99978ZM1.5 9.00005C1.2239 9.00005 0.999781 8.77518 0.999781 8.49978C0.999734 8.22363 1.2239 7.99952 1.5 7.99952C1.7754 7.99952 1.99952 8.22363 1.99952 8.49978C1.99952 8.77518 1.7754 9.00005 1.5 9.00005ZM3.99973 4.99952V3.99978H5.49973C5.77588 3.99978 5.99995 3.77566 5.99995 3.49952V1.99952H6.99973V3.49952C6.99973 3.77566 7.22315 3.99978 7.49995 3.99978H8.99995V4.99952H7.49995C7.2231 4.99952 6.99973 5.22363 6.99973 5.49978V9.00005H5.99995V5.49978C6 5.22363 5.77588 4.99952 5.49978 4.99952H3.99973ZM4.80835 9.99983H5.49978H7.5H8.19068L8.6909 10.9996H4.30884L4.80835 9.99983ZM9.99978 12C9.72368 12 9.49956 12.2235 9.49956 12.4995V12.9998H8.49978V12.4995C8.49978 12.2234 8.27566 12 7.99956 12C7.72341 12 7.50005 12.2235 7.50005 12.4995V12.9998H6.49952V12.4995C6.49952 12.2234 6.2761 12 6 12C5.72315 12 5.49978 12.2235 5.49978 12.4995V12.9998H4.5V12.4995C4.5 12.2234 4.27588 12 3.99978 12C3.72368 12 3.49956 12.2235 3.49956 12.4995V12.9998H2.49973V12H3.49952H3.99973H3.99978H5.99995H6H7.99947H7.99956H9.49947H9.50022H9.99973H9.99978H10.5V12.4986C10.4994 12.2229 10.2756 12 9.99978 12ZM14.4997 6.49952C14.4997 4.84571 15.8452 3.49952 17.4997 3.49952C19.1536 3.49952 20.4997 4.84571 20.4997 6.49952V10.9995H14.4997V6.49952ZM21.4995 12.9998H20.4997V12.4995C20.4997 12.2234 20.2756 12 19.9995 12C19.7234 12 19.5 12.2235 19.5 12.4995V12.9998H18.4995V12.4995C18.4995 12.2234 18.2761 12 18 12C17.7231 12 17.4997 12.2235 17.4997 12.4995V12.9998H16.5V12.4995C16.5 12.2234 16.2759 12 15.9998 12C15.7236 12 15.4995 12.2235 15.4995 12.4995V12.9998H14.4997V12.4995C14.4997 12.2234 14.2756 12 13.9995 12C13.7234 12 13.5 12.2235 13.5 12.4995V12H13.9995H15.9998H18H19.9995H21.4995V12.9998ZM21.9998 10.9995H21.4995V9.61675C21.6438 9.74566 21.8137 9.84748 21.9998 9.91339V10.9995ZM22.5 9C22.2239 9 21.9998 8.77514 21.9998 8.49974C21.9998 8.22359 22.2239 7.99947 22.5 7.99947C22.7754 7.99947 22.9995 8.22359 22.9995 8.49974C22.9995 8.77518 22.7754 9 22.5 9Z" fill="white"/>
</svg>
