<svg width="24" height="24" viewBox="0 0 24 16" fill="none" xmlns="http://www.w3.org/2000/svg">
<path d="M23.8709 10.1472C21.879 9.84982 20.6769 7.78512 18.817 7.20374L19.2432 5.48931L20.111 5.7236C20.1749 5.74105 20.2405 5.70083 20.257 5.63417L20.4365 4.91303C20.4529 4.84637 20.4142 4.77818 20.3504 4.76082L19.4826 4.52633L19.6729 3.76038C19.6894 3.69372 19.6508 3.62552 19.5869 3.60807L18.8953 3.42115C18.8313 3.40389 18.7659 3.44401 18.7493 3.51068L18.5589 4.27673L17.6912 4.04224C17.6271 4.02488 17.5618 4.06511 17.5452 4.13156L17.3659 4.85301C17.3494 4.91947 17.3878 4.98786 17.4518 5.00522L18.3196 5.23961L17.8668 7.06133C16.5527 7.08247 15.3346 7.61842 14.1173 8.13763L13.5215 5.74105L14.7238 5.41622C14.8124 5.39223 14.8656 5.29759 14.8429 5.20541L14.5945 4.20599C14.5715 4.1138 14.4809 4.05816 14.3923 4.08205L13.19 4.4071L12.9263 3.34581C12.9033 3.25342 12.8128 3.19789 12.7241 3.22167L11.7657 3.48066C11.677 3.50486 11.6237 3.59929 11.6466 3.69168L11.9104 4.75286L10.7079 5.0777C10.6194 5.10169 10.566 5.19632 10.5888 5.28861L10.8374 6.28773C10.8601 6.38022 10.951 6.43585 11.0397 6.41166L12.2419 6.08702L12.8763 8.63877C12.6461 8.72248 12.4148 8.79945 12.1819 8.86581C11.2328 9.13593 10.3509 9.12317 9.52458 8.53444C8.9025 8.09149 8.38265 7.49714 7.8532 6.9325L8.19837 5.54403L8.78842 5.70338C8.8319 5.71523 8.87645 5.68797 8.88771 5.64254L9.00972 5.15212C9.02088 5.1069 8.99474 5.06045 8.95126 5.0486L8.36111 4.88915L8.49055 4.3683C8.50182 4.32298 8.47567 4.27663 8.4321 4.26468L7.9617 4.13759C7.91822 4.12595 7.87377 4.1531 7.86241 4.19853L7.73296 4.71948L7.1429 4.55992C7.09942 4.54818 7.05497 4.57543 7.04361 4.62076L6.9217 5.11128C6.91054 5.15651 6.93659 5.20296 6.98016 5.2148L7.57022 5.37426L7.31886 6.38552C6.94246 6.02067 6.52895 5.67164 6.05972 5.45532L5.41513 2.86243L6.77835 2.4941C6.87872 2.46705 6.93923 2.35986 6.91318 2.25522L6.63167 1.12227C6.60562 1.01763 6.50281 0.95444 6.40234 0.981697L5.03892 1.35002L4.73978 0.146939C4.71374 0.0423005 4.61102 -0.0207886 4.51055 0.00626423L3.42395 0.299864C3.32358 0.327121 3.26297 0.434209 3.28902 0.538949L3.58816 1.74203L2.22494 2.11026C2.12457 2.13741 2.06406 2.2446 2.09001 2.34924L2.37162 3.48209C2.39767 3.58673 2.50048 3.64992 2.60094 3.62266L3.96407 3.25444L4.49244 5.37977C4.22728 5.48635 3.98551 5.65183 3.78938 5.86346C2.83693 6.89136 2.14739 7.91222 0.565021 10.3319C-2.15349 14.4886 5.65875 10.621 8.6906 13.5271C9.37603 14.1396 9.37603 14.9563 10.2083 15.5177C11.824 16.5386 13.4886 15.7219 15.0553 15.0584C16.9647 14.2927 18.8589 12.9593 20.6856 11.9958C20.9597 11.8512 23.8002 10.4898 23.8282 10.4759C24.0445 10.3686 24.054 10.1746 23.8709 10.1472Z" fill="white"/>
</svg>
